<mxfile host="65bd71144e">
    <diagram id="y6yWmJWhMZ6w7K0qYgY1" name="Page-1">
        <mxGraphModel dx="2004" dy="1126" grid="0" gridSize="10" guides="1" tooltips="1" connect="1" arrows="1" fold="1" page="1" pageScale="1" pageWidth="1169" pageHeight="827" background="#FFFFFF" math="0" shadow="0">
            <root>
                <mxCell id="0"/>
                <mxCell id="1" parent="0"/>
                <mxCell id="48" value="VPC" style="sketch=0;outlineConnect=0;gradientColor=none;html=1;whiteSpace=wrap;fontSize=12;fontStyle=1;shape=mxgraph.aws4.group;grIcon=mxgraph.aws4.group_vpc;strokeColor=#999999;fillColor=none;verticalAlign=top;align=left;spacingLeft=30;fontColor=#000000;dashed=0;" parent="1" vertex="1">
                    <mxGeometry x="60" y="70" width="910" height="581" as="geometry"/>
                </mxCell>
                <mxCell id="47" value="" style="rounded=1;arcSize=10;dashed=1;strokeColor=#FF0000;fillColor=none;gradientColor=none;dashPattern=8 4;strokeWidth=2;fontStyle=1;fontColor=#000000;" parent="1" vertex="1">
                    <mxGeometry x="381" y="172" width="100" height="431" as="geometry"/>
                </mxCell>
                <mxCell id="53" value="" style="outlineConnect=0;gradientColor=none;html=1;whiteSpace=wrap;fontSize=12;fontStyle=1;strokeColor=#3333FF;fillColor=none;verticalAlign=top;align=center;fontColor=#000000;dashed=1;spacingTop=3;strokeWidth=2;" parent="1" vertex="1">
                    <mxGeometry x="367" y="129" width="130" height="483" as="geometry"/>
                </mxCell>
                <mxCell id="31" value="Availability Zone 1" style="fillColor=none;strokeColor=#000000;dashed=1;verticalAlign=top;fontStyle=1;fontColor=#000000;rotation=90;" parent="1" vertex="1">
                    <mxGeometry x="512.89" y="141.77" width="226.51" height="757.41" as="geometry"/>
                </mxCell>
                <mxCell id="4" value="Public subnet 0" style="points=[[0,0],[0.25,0],[0.5,0],[0.75,0],[1,0],[1,0.25],[1,0.5],[1,0.75],[1,1],[0.75,1],[0.5,1],[0.25,1],[0,1],[0,0.75],[0,0.5],[0,0.25]];outlineConnect=0;gradientColor=none;html=1;whiteSpace=wrap;fontSize=12;fontStyle=1;container=1;pointerEvents=0;collapsible=0;recursiveResize=0;shape=mxgraph.aws4.group;grIcon=mxgraph.aws4.group_security_group;grStroke=0;strokeColor=#00CC00;fillColor=#E9F3E6;verticalAlign=top;align=left;spacingLeft=30;fontColor=#000000;dashed=0;" parent="1" vertex="1">
                    <mxGeometry x="260" y="424" width="323" height="196" as="geometry"/>
                </mxCell>
                <mxCell id="45" value="" style="sketch=0;outlineConnect=0;fontColor=#000000;gradientColor=none;fillColor=#D45B07;strokeColor=#000000;dashed=0;verticalLabelPosition=bottom;verticalAlign=top;align=center;html=1;fontSize=12;fontStyle=1;aspect=fixed;pointerEvents=1;shape=mxgraph.aws4.t2_instance;" parent="4" vertex="1">
                    <mxGeometry x="148" y="34" width="48" height="48" as="geometry"/>
                </mxCell>
                <mxCell id="57" value="WP Server 1" style="text;html=1;strokeColor=none;fillColor=none;align=center;verticalAlign=middle;whiteSpace=wrap;rounded=0;fontStyle=1;fontColor=#000000;" parent="4" vertex="1">
                    <mxGeometry x="146" y="89.87" width="60" height="23.75" as="geometry"/>
                </mxCell>
                <mxCell id="8" value="Private subnet 0" style="points=[[0,0],[0.25,0],[0.5,0],[0.75,0],[1,0],[1,0.25],[1,0.5],[1,0.75],[1,1],[0.75,1],[0.5,1],[0.25,1],[0,1],[0,0.75],[0,0.5],[0,0.25]];outlineConnect=0;gradientColor=none;html=1;whiteSpace=wrap;fontSize=12;fontStyle=1;container=1;pointerEvents=0;collapsible=0;recursiveResize=0;shape=mxgraph.aws4.group;grIcon=mxgraph.aws4.group_security_group;grStroke=0;strokeColor=#007FFF;fillColor=#E6F2F8;verticalAlign=top;align=left;spacingLeft=30;fontColor=#000000;dashed=0;" parent="1" vertex="1">
                    <mxGeometry x="727" y="417" width="225" height="201" as="geometry"/>
                </mxCell>
                <mxCell id="49" value="" style="rounded=1;arcSize=10;dashed=1;strokeColor=#FF0000;fillColor=none;gradientColor=none;dashPattern=8 4;strokeWidth=2;fontStyle=1;fontColor=#000000;" parent="8" vertex="1">
                    <mxGeometry x="9" y="30" width="131" height="105" as="geometry"/>
                </mxCell>
                <mxCell id="44" value="" style="sketch=0;outlineConnect=0;fontColor=#000000;gradientColor=none;fillColor=#4D27AA;strokeColor=#000000;dashed=0;verticalLabelPosition=bottom;verticalAlign=top;align=center;html=1;fontSize=12;fontStyle=1;aspect=fixed;pointerEvents=1;shape=mxgraph.aws4.endpoints;" parent="8" vertex="1">
                    <mxGeometry x="27" y="38" width="48" height="48" as="geometry"/>
                </mxCell>
                <mxCell id="63" value="EC2 &lt;br&gt;instance endpoint" style="text;html=1;strokeColor=none;fillColor=none;align=center;verticalAlign=middle;whiteSpace=wrap;rounded=0;fontStyle=1;fontColor=#000000;" parent="8" vertex="1">
                    <mxGeometry x="61" y="40" width="89" height="23.75" as="geometry"/>
                </mxCell>
                <mxCell id="65" value="sg_tunnel&lt;br&gt;security group" style="text;html=1;strokeColor=none;fillColor=none;align=center;verticalAlign=middle;whiteSpace=wrap;rounded=0;fontStyle=1;fontColor=#FF0000;" parent="8" vertex="1">
                    <mxGeometry x="27" y="107" width="89" height="23.75" as="geometry"/>
                </mxCell>
                <mxCell id="52" value="" style="rounded=1;arcSize=10;dashed=1;strokeColor=#FF0000;fillColor=none;gradientColor=none;dashPattern=8 4;strokeWidth=2;fontStyle=1;fontColor=#000000;" parent="1" vertex="1">
                    <mxGeometry x="160" y="302" width="170" height="86" as="geometry"/>
                </mxCell>
                <mxCell id="26" value="Availability Zone 2" style="fillColor=none;strokeColor=#000000;dashed=1;verticalAlign=top;fontStyle=1;fontColor=#000000;rotation=90;" parent="1" vertex="1">
                    <mxGeometry x="522.16" y="-192.02" width="202.19" height="759.96" as="geometry"/>
                </mxCell>
                <mxCell id="5" value="Public subnet 1" style="points=[[0,0],[0.25,0],[0.5,0],[0.75,0],[1,0],[1,0.25],[1,0.5],[1,0.75],[1,1],[0.75,1],[0.5,1],[0.25,1],[0,1],[0,0.75],[0,0.5],[0,0.25]];outlineConnect=0;gradientColor=none;html=1;whiteSpace=wrap;fontSize=12;fontStyle=1;container=1;pointerEvents=0;collapsible=0;recursiveResize=0;shape=mxgraph.aws4.group;grIcon=mxgraph.aws4.group_security_group;grStroke=0;strokeColor=#00CC00;fillColor=#E9F3E6;verticalAlign=top;align=left;spacingLeft=30;fontColor=#000000;dashed=0;" parent="1" vertex="1">
                    <mxGeometry x="260" y="100" width="319" height="175" as="geometry"/>
                </mxCell>
                <mxCell id="46" value="" style="sketch=0;outlineConnect=0;fontColor=#000000;gradientColor=none;fillColor=#D45B07;strokeColor=#000000;dashed=0;verticalLabelPosition=bottom;verticalAlign=top;align=center;html=1;fontSize=12;fontStyle=1;aspect=fixed;pointerEvents=1;shape=mxgraph.aws4.t2_instance;" parent="5" vertex="1">
                    <mxGeometry x="143" y="112" width="48" height="48" as="geometry"/>
                </mxCell>
                <mxCell id="58" value="WP Server 2" style="text;html=1;strokeColor=none;fillColor=none;align=center;verticalAlign=middle;whiteSpace=wrap;rounded=0;fontStyle=1;fontColor=#000000;" parent="5" vertex="1">
                    <mxGeometry x="137" y="81.13" width="60" height="23.75" as="geometry"/>
                </mxCell>
                <mxCell id="3" value="" style="sketch=0;outlineConnect=0;fontColor=#000000;gradientColor=none;fillColor=#4D27AA;strokeColor=#000000;dashed=0;verticalLabelPosition=bottom;verticalAlign=top;align=center;html=1;fontSize=12;fontStyle=1;aspect=fixed;pointerEvents=1;shape=mxgraph.aws4.internet_gateway;" parent="1" vertex="1">
                    <mxGeometry x="35" y="381" width="48" height="48" as="geometry"/>
                </mxCell>
                <mxCell id="23" style="edgeStyle=none;html=1;strokeWidth=2;fontStyle=1;fontColor=#000000;strokeColor=#000000;" parent="1" source="5" target="16" edge="1">
                    <mxGeometry relative="1" as="geometry">
                        <Array as="points">
                            <mxPoint x="138" y="192"/>
                        </Array>
                    </mxGeometry>
                </mxCell>
                <mxCell id="9" value="Private subnet 1" style="points=[[0,0],[0.25,0],[0.5,0],[0.75,0],[1,0],[1,0.25],[1,0.5],[1,0.75],[1,1],[0.75,1],[0.5,1],[0.25,1],[0,1],[0,0.75],[0,0.5],[0,0.25]];outlineConnect=0;gradientColor=none;html=1;whiteSpace=wrap;fontSize=12;fontStyle=1;container=1;pointerEvents=0;collapsible=0;recursiveResize=0;shape=mxgraph.aws4.group;grIcon=mxgraph.aws4.group_security_group;grStroke=0;strokeColor=#007FFF;fillColor=#E6F2F8;verticalAlign=top;align=left;spacingLeft=30;fontColor=#000000;dashed=0;" parent="1" vertex="1">
                    <mxGeometry x="812" y="100" width="99" height="153" as="geometry"/>
                </mxCell>
                <mxCell id="16" value="Route table" style="sketch=0;outlineConnect=0;fontColor=#000000;gradientColor=none;strokeColor=#000000;fillColor=#ffffff;dashed=0;verticalLabelPosition=bottom;verticalAlign=top;align=center;html=1;fontSize=12;fontStyle=1;aspect=fixed;shape=mxgraph.aws4.resourceIcon;resIcon=mxgraph.aws4.route_table;" parent="1" vertex="1">
                    <mxGeometry x="113" y="379" width="50" height="50" as="geometry"/>
                </mxCell>
                <mxCell id="24" style="edgeStyle=none;html=1;strokeWidth=2;fontStyle=1;fontColor=#000000;strokeColor=#000000;" parent="1" source="4" target="16" edge="1">
                    <mxGeometry relative="1" as="geometry">
                        <Array as="points">
                            <mxPoint x="140" y="522"/>
                        </Array>
                    </mxGeometry>
                </mxCell>
                <mxCell id="36" value="" style="endArrow=classic;html=1;strokeWidth=2;startArrow=classic;startFill=1;fontStyle=1;fontColor=#000000;strokeColor=#000000;" parent="1" source="16" target="3" edge="1">
                    <mxGeometry width="50" height="50" relative="1" as="geometry">
                        <mxPoint x="299" y="419" as="sourcePoint"/>
                        <mxPoint x="349" y="369" as="targetPoint"/>
                    </mxGeometry>
                </mxCell>
                <mxCell id="66" style="edgeStyle=none;html=1;entryX=0.026;entryY=0.439;entryDx=0;entryDy=0;entryPerimeter=0;strokeWidth=2;startArrow=none;startFill=0;endArrow=classic;endFill=1;fontStyle=1;fontColor=#000000;strokeColor=#000000;" parent="1" source="50" target="53" edge="1">
                    <mxGeometry relative="1" as="geometry"/>
                </mxCell>
                <mxCell id="50" value="" style="sketch=0;outlineConnect=0;fontColor=#000000;gradientColor=none;fillColor=#4D27AA;strokeColor=#000000;dashed=0;verticalLabelPosition=bottom;verticalAlign=top;align=center;html=1;fontSize=12;fontStyle=1;aspect=fixed;pointerEvents=1;shape=mxgraph.aws4.application_load_balancer;" parent="1" vertex="1">
                    <mxGeometry x="183" y="314" width="54" height="54" as="geometry"/>
                </mxCell>
                <mxCell id="56" style="edgeStyle=none;html=1;exitX=0;exitY=0.75;exitDx=0;exitDy=0;exitPerimeter=0;startArrow=none;startFill=0;endArrow=classic;endFill=1;strokeWidth=2;fontStyle=1;fontColor=#000000;strokeColor=#000000;" parent="1" target="44" edge="1">
                    <mxGeometry relative="1" as="geometry">
                        <Array as="points">
                            <mxPoint x="782" y="354"/>
                        </Array>
                        <mxPoint x="1024" y="354.5" as="sourcePoint"/>
                    </mxGeometry>
                </mxCell>
                <mxCell id="59" value="App server&lt;br&gt;security group" style="text;html=1;strokeColor=none;fillColor=none;align=center;verticalAlign=middle;whiteSpace=wrap;rounded=0;fontStyle=1;fontColor=#FF0000;" parent="1" vertex="1">
                    <mxGeometry x="394" y="558" width="87" height="23.75" as="geometry"/>
                </mxCell>
                <mxCell id="60" value="ALB target group" style="text;html=1;strokeColor=none;fillColor=none;align=center;verticalAlign=middle;whiteSpace=wrap;rounded=0;fontStyle=1;fontColor=#3333FF;" parent="1" vertex="1">
                    <mxGeometry x="371" y="129" width="115" height="23.75" as="geometry"/>
                </mxCell>
                <mxCell id="61" value="ALB" style="text;html=1;strokeColor=none;fillColor=none;align=center;verticalAlign=middle;whiteSpace=wrap;rounded=0;fontStyle=1;fontColor=#000000;" parent="1" vertex="1">
                    <mxGeometry x="221" y="314" width="60" height="16.37" as="geometry"/>
                </mxCell>
                <mxCell id="62" value="ALB&lt;br&gt;security group" style="text;html=1;strokeColor=none;fillColor=none;align=center;verticalAlign=middle;whiteSpace=wrap;rounded=0;fontStyle=1;fontColor=#FF0000;" parent="1" vertex="1">
                    <mxGeometry x="235" y="352" width="95" height="23.75" as="geometry"/>
                </mxCell>
                <mxCell id="72" value="" style="aspect=fixed;html=1;points=[];align=center;image;fontSize=12;image=img/lib/azure2/azure_stack/User_Subscriptions.svg;" vertex="1" parent="1">
                    <mxGeometry x="1038" y="305.13" width="68" height="66" as="geometry"/>
                </mxCell>
                <mxCell id="74" style="edgeStyle=none;html=1;startArrow=none;startFill=0;endArrow=classic;endFill=1;strokeWidth=2;strokeColor=#000000;" edge="1" parent="1" source="44" target="46">
                    <mxGeometry relative="1" as="geometry">
                        <Array as="points">
                            <mxPoint x="638" y="480"/>
                            <mxPoint x="637" y="236"/>
                        </Array>
                    </mxGeometry>
                </mxCell>
                <mxCell id="75" style="edgeStyle=none;html=1;strokeColor=#000000;strokeWidth=2;startArrow=none;startFill=0;endArrow=classic;endFill=1;" edge="1" parent="1" source="44" target="45">
                    <mxGeometry relative="1" as="geometry"/>
                </mxCell>
            </root>
        </mxGraphModel>
    </diagram>
</mxfile>